<?xml version="1.0" standalone="no"?>
<!DOCTYPE svg PUBLIC "-//W3C//DTD SVG 20010904//EN"
 "http://www.w3.org/TR/2001/REC-SVG-20010904/DTD/svg10.dtd">
<svg version="1.0" xmlns="http://www.w3.org/2000/svg"
 width="512.000000pt" height="512.000000pt" viewBox="0 0 512.000000 512.000000"
 preserveAspectRatio="xMidYMid meet">

<g transform="translate(0.000000,512.000000) scale(0.100000,-0.100000)"
fill="#000000" stroke="none">
<path d="M2517 5106 c-32 -25 -37 -77 -36 -386 0 -335 5 -368 52 -384 42 -15
80 3 94 44 15 43 18 629 3 679 -11 39 -35 60 -70 60 -14 0 -33 -6 -43 -13z"/>
<path d="M1805 4635 c-14 -13 -25 -34 -25 -45 0 -12 21 -72 46 -133 82 -201
94 -225 123 -237 49 -20 101 15 101 68 0 33 -129 336 -151 355 -30 24 -66 21
-94 -8z"/>
<path d="M3221 4643 c-22 -19 -151 -322 -151 -355 0 -53 52 -88 101 -68 29 12
40 33 123 237 25 62 46 122 46 133 0 28 -44 70 -73 70 -14 0 -34 -8 -46 -17z"/>
<path d="M1205 4235 c-47 -46 -37 -66 103 -208 70 -71 138 -133 151 -138 51
-20 113 37 97 88 -3 11 -66 78 -139 151 -146 144 -166 154 -212 107z"/>
<path d="M3703 4128 c-73 -73 -136 -140 -139 -151 -16 -51 46 -108 97 -88 13
5 81 67 152 138 139 142 149 162 102 208 -46 47 -66 37 -212 -107z"/>
<path d="M2455 4154 c-142 -19 -192 -30 -275 -56 -397 -127 -712 -441 -838
-838 -43 -137 -56 -227 -56 -385 1 -334 114 -616 350 -875 194 -214 269 -398
283 -695 5 -107 13 -172 23 -196 21 -48 71 -104 107 -119 l29 -12 4 -236 c3
-201 6 -243 21 -277 33 -73 99 -125 179 -140 l35 -7 7 -69 c7 -82 26 -133 64
-173 38 -40 118 -76 172 -76 54 0 134 36 172 76 38 40 57 91 64 173 l7 69 35
7 c80 15 146 67 179 140 15 34 18 76 21 277 l4 236 29 12 c36 15 86 72 107
119 9 23 17 91 22 191 9 184 32 284 94 416 54 113 103 186 195 289 213 238
324 496 346 805 15 213 -54 538 -121 569 -35 16 -48 14 -78 -10 -32 -25 -33
-55 -7 -132 38 -111 55 -217 55 -357 0 -305 -95 -539 -319 -790 -208 -233
-315 -501 -315 -792 0 -114 -15 -163 -55 -178 -35 -13 -835 -13 -870 0 -40 15
-55 64 -55 182 0 294 -104 557 -310 783 -228 251 -324 489 -323 800 1 255 69
461 218 660 369 493 1033 607 1539 266 74 -50 195 -162 263 -243 23 -28 39
-38 60 -38 63 0 96 55 67 113 -27 51 -221 238 -309 295 -146 97 -314 166 -477
197 -83 15 -287 27 -343 19z m435 -3279 l0 -85 -140 0 c-127 0 -142 -2 -160
-20 -30 -30 -27 -83 6 -109 24 -19 40 -21 160 -21 l134 0 0 -40 c0 -51 -22
-105 -48 -119 -28 -15 -536 -15 -564 0 -26 14 -48 68 -48 119 l0 40 50 0 c60
0 100 31 100 76 0 47 -35 74 -97 74 l-53 0 0 85 0 85 330 0 330 0 0 -85z
m-240 -597 c0 -88 -55 -144 -117 -122 -35 12 -63 66 -63 122 l0 42 90 0 90 0
0 -42z"/>
<path d="M803 3634 c-20 -20 -24 -31 -19 -57 4 -17 12 -37 19 -43 19 -19 328
-144 354 -144 27 0 73 41 73 65 0 9 -6 28 -14 43 -11 22 -45 40 -178 95 -91
37 -174 67 -187 67 -12 0 -33 -12 -48 -26z"/>
<path d="M4075 3591 c-162 -68 -184 -85 -185 -134 0 -26 45 -67 73 -67 26 0
335 125 354 143 7 7 15 27 19 44 5 26 1 37 -19 57 -17 17 -36 26 -54 25 -15
-1 -100 -31 -188 -68z"/>
<path d="M1850 3267 c-49 -24 -50 -38 -48 -384 4 -401 -13 -368 184 -368 l136
0 24 28 c29 34 30 56 4 90 -19 24 -28 26 -108 29 l-87 3 -3 286 c-2 257 -4
288 -20 301 -26 24 -55 29 -82 15z"/>
<path d="M2322 3247 c-22 -23 -22 -28 -22 -353 l0 -331 23 -21 c22 -21 33 -22
180 -22 144 0 159 2 177 20 30 30 27 83 -6 109 -23 18 -41 21 -125 21 l-99 0
0 75 0 75 93 0 c98 1 119 8 136 51 11 30 -8 83 -34 93 -9 3 -57 6 -106 6 l-89
0 0 75 0 75 99 0 c84 0 102 3 125 21 33 26 36 79 6 109 -18 18 -33 20 -178 20
-153 0 -159 -1 -180 -23z"/>
<path d="M2913 3261 c-12 -6 -26 -19 -32 -30 -7 -13 -11 -132 -11 -339 0 -400
-15 -367 172 -366 115 0 140 3 183 23 68 30 128 91 162 165 26 57 28 70 28
186 0 114 -2 130 -26 180 -36 77 -80 124 -146 156 -49 25 -68 28 -182 31 -69
2 -136 -1 -148 -6z m276 -167 c52 -31 81 -102 81 -198 -1 -157 -63 -225 -207
-226 l-43 0 0 226 0 227 69 -5 c41 -3 81 -13 100 -24z"/>
<path d="M371 2949 c-52 -21 -65 -69 -30 -113 l20 -26 355 0 c341 0 355 1 374
20 38 38 22 100 -31 119 -40 14 -653 14 -688 0z"/>
<path d="M4054 2946 c-48 -21 -60 -80 -24 -116 19 -19 33 -20 374 -20 l355 0
20 26 c12 15 21 33 21 40 0 29 -25 64 -53 74 -47 16 -654 13 -693 -4z"/>
<path d="M970 2304 c-85 -35 -163 -74 -172 -85 -25 -30 -22 -66 8 -96 34 -34
53 -30 245 51 123 53 159 72 168 92 16 35 14 47 -10 78 -30 39 -63 33 -239
-40z"/>
<path d="M3911 2344 c-24 -31 -26 -43 -10 -78 9 -20 45 -39 168 -91 192 -82
211 -86 245 -52 30 30 33 66 9 96 -22 26 -322 151 -362 151 -20 0 -36 -9 -50
-26z"/>
<path d="M1318 1742 c-146 -146 -158 -166 -120 -211 9 -11 32 -24 50 -27 32
-7 38 -2 174 134 136 136 141 142 134 174 -3 18 -16 41 -27 51 -45 37 -65 25
-211 -121z"/>
<path d="M3591 1863 c-11 -10 -24 -33 -27 -51 -7 -32 -2 -38 134 -174 136
-136 142 -141 174 -134 41 8 56 23 64 64 7 32 2 38 -133 173 -147 147 -167
159 -212 122z"/>
</g>
</svg>
