<?xml version="1.0" standalone="no"?>
<!DOCTYPE svg PUBLIC "-//W3C//DTD SVG 20010904//EN"
 "http://www.w3.org/TR/2001/REC-SVG-20010904/DTD/svg10.dtd">
<svg version="1.0" xmlns="http://www.w3.org/2000/svg"
 width="512.000000pt" height="512.000000pt" viewBox="0 0 512.000000 512.000000"
 preserveAspectRatio="xMidYMid meet">

<g transform="translate(0.000000,512.000000) scale(0.100000,-0.100000)"
fill="#000000" stroke="none">
<path d="M2925 4788 c-90 -17 -204 -80 -279 -154 -114 -114 -166 -249 -166
-429 0 -78 -1 -82 -26 -94 -24 -11 -29 -8 -66 30 -63 65 -136 94 -233 93 -95
0 -157 -25 -220 -89 -65 -65 -89 -125 -89 -225 0 -88 14 -130 67 -201 l19 -27
-44 -59 c-25 -32 -64 -87 -87 -122 l-41 -64 0 93 c0 117 -13 160 -67 220 -59
65 -105 80 -251 80 -147 0 -184 -11 -247 -75 -66 -65 -75 -99 -75 -269 l0
-136 -80 0 -80 0 0 296 c0 204 -4 310 -12 338 -16 55 -99 138 -154 154 -53 16
-255 16 -308 0 -55 -16 -138 -99 -154 -154 -8 -28 -12 -134 -12 -338 0 -267
-2 -296 -16 -296 -77 0 -189 -88 -212 -166 -17 -59 -17 -1209 0 -1268 23 -78
135 -166 212 -166 14 0 16 -35 16 -376 0 -267 4 -389 12 -418 16 -55 99 -138
154 -154 53 -16 255 -16 308 0 55 16 138 99 154 154 8 29 12 151 12 418 l0
376 80 0 80 0 0 -383 c0 -228 4 -407 11 -443 38 -212 231 -405 443 -443 38 -7
264 -11 612 -11 l552 0 12 -30 c17 -42 90 -104 138 -118 51 -16 253 -15 306 0
55 16 138 99 154 154 7 24 12 100 12 177 l0 136 43 5 c166 21 223 30 307 51
487 121 900 452 1134 905 101 196 160 393 186 615 14 125 14 1891 -1 1971 -17
97 -78 211 -154 287 -76 77 -190 138 -289 156 -75 14 -1589 13 -1661 -1z
m1717 -185 c93 -44 151 -100 196 -191 l37 -76 3 -520 2 -521 -52 98 c-83 153
-173 272 -308 407 -153 154 -270 238 -465 335 -161 80 -311 131 -480 161 -125
22 -442 26 -555 5 -103 -18 -262 -58 -324 -81 -28 -11 -53 -20 -55 -20 -2 0
-1 32 2 71 7 86 48 178 106 242 44 48 135 101 197 116 23 5 375 9 834 8 l795
-2 67 -32z m-1059 -473 c642 -126 1140 -625 1269 -1273 29 -147 32 -433 5
-572 -119 -609 -534 -1076 -1115 -1255 -171 -52 -259 -64 -462 -64 -152 0
-205 4 -297 22 -650 130 -1145 625 -1275 1275 -32 161 -32 433 0 594 140 701
708 1221 1417 1297 96 10 353 -3 458 -24z m-1358 -66 c18 -8 40 -23 49 -33 15
-16 11 -21 -47 -63 -34 -26 -90 -72 -124 -103 l-62 -56 -21 40 c-11 22 -20 54
-20 70 0 116 121 194 225 145z m-1450 -89 l25 -24 0 -296 0 -295 -160 0 -160
0 0 295 0 296 25 24 c23 24 31 25 135 25 104 0 112 -1 135 -25z m800 -320 c24
-23 25 -29 25 -160 l0 -135 -160 0 -160 0 0 135 c0 131 1 137 25 160 23 24 31
25 135 25 104 0 112 -1 135 -25z m62 -467 c-3 -7 -16 -43 -28 -80 l-23 -68
-542 -2 c-530 -3 -543 -3 -570 -24 -15 -11 -37 -33 -48 -48 -20 -27 -21 -39
-21 -406 0 -367 1 -379 21 -406 11 -15 33 -37 48 -48 27 -21 40 -21 570 -24
l542 -2 23 -68 c12 -37 25 -73 28 -79 4 -10 -135 -13 -672 -13 l-676 0 -24 25
-25 24 0 591 0 591 25 24 24 25 676 0 c537 0 676 -3 672 -12z m-91 -331 c-3
-13 -8 -49 -12 -80 l-7 -57 -83 0 -84 0 0 -80 0 -80 78 0 78 0 12 -137 c7 -76
15 -148 18 -160 l6 -23 -496 0 -496 0 0 320 0 320 496 0 496 0 -6 -23z m-746
-1472 l0 -376 -25 -24 c-23 -24 -31 -25 -135 -25 -104 0 -112 1 -135 25 l-25
24 0 376 0 375 160 0 160 0 0 -375z m951 307 c67 -122 162 -245 289 -372 181
-181 364 -303 594 -395 l81 -33 3 -126 3 -127 -568 3 -568 3 -67 32 c-93 44
-151 100 -196 191 l-37 76 -3 408 -3 408 218 0 218 0 36 -68z m1274 -871 c50
-6 109 -14 133 -17 l42 -5 0 -135 c0 -130 -1 -136 -25 -159 -23 -24 -31 -25
-135 -25 -104 0 -112 1 -135 25 -24 24 -25 28 -25 184 l0 160 28 -8 c15 -5 68
-14 117 -20z"/>
<path d="M4480 4467 c-49 -16 -133 -102 -148 -153 -28 -94 -8 -169 63 -239 51
-52 102 -75 165 -75 63 0 114 23 165 75 98 97 101 222 8 325 -65 72 -158 97
-253 67z m135 -172 c16 -15 25 -36 25 -55 0 -19 -9 -40 -25 -55 -15 -16 -36
-25 -55 -25 -19 0 -40 9 -55 25 -16 15 -25 36 -25 55 0 19 9 40 25 55 15 16
36 25 55 25 19 0 40 -9 55 -25z"/>
<path d="M3140 3834 c-208 -27 -407 -101 -580 -217 -96 -64 -273 -241 -337
-337 -95 -142 -163 -302 -199 -470 -26 -119 -26 -381 0 -500 55 -257 169 -466
355 -651 185 -186 394 -300 651 -355 119 -26 381 -26 500 0 257 55 466 169
651 355 186 185 300 394 355 651 26 119 26 381 0 500 -55 257 -169 466 -355
651 -182 182 -382 293 -631 350 -83 19 -331 33 -410 23z m-22 -529 l-3 -127
-40 -14 c-23 -7 -42 -9 -45 -4 -3 5 -23 81 -45 169 l-39 160 -144 3 -145 3 89
47 c102 53 210 93 304 112 l65 13 3 -118 c1 -65 1 -175 0 -244z m507 318 c91
-29 193 -78 272 -131 l54 -36 -172 -172 -172 -172 -43 21 c-24 11 -41 23 -40
26 2 3 43 71 91 150 l86 144 -102 103 c-112 112 -112 111 26 67z m-151 -237
c-13 -23 -43 -74 -67 -113 -42 -72 -42 -73 -84 -73 l-43 0 0 222 0 223 109
-109 110 -110 -25 -40z m-645 -93 c5 -21 21 -81 34 -135 l24 -96 -28 -21 c-15
-12 -31 -21 -35 -21 -9 0 -304 293 -304 302 0 4 67 8 150 8 l149 0 10 -37z
m1221 -123 l0 -149 -42 -12 c-24 -6 -83 -22 -133 -34 l-90 -22 -22 26 c-12 14
-22 30 -23 36 0 11 291 305 302 305 5 0 8 -67 8 -150z m-1343 -326 c-11 -24
-23 -41 -26 -40 -3 2 -71 43 -150 91 l-144 86 -103 -102 -103 -102 9 40 c24
107 92 260 158 360 l36 54 172 -172 172 -172 -21 -43z m1577 208 c37 -74 79
-199 94 -280 l9 -52 -244 2 -245 3 -14 40 c-7 21 -9 42 -4 45 4 3 81 23 169
44 l161 40 0 145 0 146 20 -33 c11 -18 35 -63 54 -100z m-889 -27 c172 -45
305 -179 350 -352 65 -249 -94 -511 -350 -578 -250 -65 -513 94 -580 350 -89
342 238 669 580 580z m-828 -338 c72 -42 73 -42 73 -84 l0 -43 -222 0 -223 0
109 109 110 110 40 -25 c23 -13 74 -43 113 -67z m1689 -236 l-110 -110 -40 25
c-23 13 -74 43 -113 67 -72 42 -73 42 -73 85 l0 42 222 0 223 0 -109 -109z
m-1580 -96 c7 -23 9 -42 4 -45 -5 -3 -81 -23 -169 -45 l-160 -39 -3 -145 -3
-144 -52 99 c-52 101 -94 218 -111 312 l-9 52 244 -2 245 -3 14 -40z m1693
-54 c-23 -105 -91 -259 -157 -358 l-36 -54 -172 172 -172 172 21 43 c11 24 23
41 26 40 3 -2 71 -43 150 -91 l144 -86 101 100 c56 56 102 101 102 101 1 0 -2
-17 -7 -39z m-1549 -191 c0 -3 -70 -75 -155 -160 l-155 -155 0 152 0 153 28 7
c15 3 74 19 132 33 l105 27 22 -26 c12 -14 22 -28 23 -31z m1068 -158 c84 -82
152 -152 152 -155 0 -4 -67 -7 -150 -7 l-149 0 -10 38 c-5 20 -21 80 -34 134
l-24 96 26 20 c14 12 29 21 32 21 3 1 74 -66 157 -147z m-852 9 c-2 -3 -43
-71 -91 -150 l-86 -144 102 -103 102 -103 -40 9 c-107 24 -260 92 -360 158
l-54 36 172 172 172 172 43 -21 c24 -11 41 -23 40 -26z m502 -23 c5 -18 24
-95 42 -170 l34 -137 145 -3 144 -3 -99 -52 c-101 -52 -218 -94 -312 -111
l-52 -9 2 245 3 244 35 13 c50 18 48 18 58 -17z m-258 -240 l0 -223 -109 109
-110 110 25 40 c13 23 43 74 67 113 42 72 42 73 85 73 l42 0 0 -222z"/>
<path d="M3205 2871 c-92 -24 -173 -90 -215 -176 -19 -41 -24 -66 -24 -135 -1
-78 2 -90 33 -148 38 -70 70 -100 145 -140 43 -22 64 -26 136 -26 72 0 93 4
136 26 75 40 107 70 145 140 31 58 34 70 33 148 0 72 -4 93 -26 136 -39 75
-70 107 -137 143 -65 34 -164 49 -226 32z m138 -165 c103 -43 128 -177 48
-257 -65 -65 -157 -65 -222 0 -124 123 13 325 174 257z"/>
<path d="M720 2640 l0 -80 80 0 80 0 0 80 0 80 -80 0 -80 0 0 -80z"/>
<path d="M1040 2640 l0 -80 80 0 80 0 0 80 0 80 -80 0 -80 0 0 -80z"/>
<path d="M1600 1267 c-49 -16 -133 -102 -148 -153 -28 -94 -8 -169 63 -239
101 -102 229 -102 330 0 98 97 101 222 8 325 -65 72 -158 97 -253 67z m135
-172 c50 -49 15 -135 -55 -135 -19 0 -40 9 -55 25 -16 15 -25 36 -25 55 0 19
9 40 25 55 15 16 36 25 55 25 19 0 40 -9 55 -25z"/>
</g>
</svg>
